<?xml version="1.0" encoding="UTF-8"?>
<svg xmlns="http://www.w3.org/2000/svg" xmlns:xlink="http://www.w3.org/1999/xlink" width="32px" height="32px" viewBox="0 0 32 32" version="1.1">
<g id="surface1">
<path style=" stroke:none;fill-rule:nonzero;fill:rgb(0%,0%,0%);fill-opacity:1;" d="M 18.449219 1.789062 C 18.375 1.835938 18.3125 1.9375 18.3125 2.007812 C 18.3125 2.074219 18.4375 2.613281 18.601562 3.195312 L 18.882812 4.257812 L 18.53125 8.707031 C 18.335938 11.148438 18.148438 13.179688 18.117188 13.210938 C 18.085938 13.25 18.0625 13.21875 18.054688 13.117188 C 18.054688 13.039062 18.019531 12.625 17.976562 12.199219 C 17.914062 11.574219 17.914062 11.417969 17.980469 11.363281 C 18.21875 11.167969 18.101562 11.042969 16.351562 9.644531 C 15.40625 8.894531 14.632812 8.238281 14.632812 8.1875 C 14.625 8.019531 14.488281 7.9375 14.226562 7.9375 C 13.738281 7.9375 11.863281 8.179688 11.773438 8.257812 C 11.648438 8.363281 11.664062 8.667969 11.800781 8.742188 C 11.863281 8.773438 12.320312 8.851562 12.8125 8.90625 C 13.574219 8.992188 13.742188 9.03125 13.875 9.148438 C 15.125 10.273438 16.5625 11.664062 16.5625 11.742188 C 16.5625 11.800781 16.617188 12.429688 16.6875 13.15625 C 16.835938 14.730469 16.832031 14.667969 16.738281 14.574219 C 16.636719 14.476562 16.074219 14.480469 15.875 14.582031 C 15.636719 14.699219 15.664062 14.992188 15.917969 15.15625 C 16.195312 15.324219 16.175781 15.488281 15.863281 15.792969 C 15.492188 16.144531 15.367188 16.175781 15.230469 15.9375 C 14.957031 15.476562 14.605469 15.582031 14.539062 16.148438 C 14.511719 16.34375 14.507812 16.554688 14.53125 16.625 C 14.582031 16.78125 14.65625 16.78125 13 16.59375 L 11.65625 16.445312 L 11.34375 16.113281 C 11.175781 15.925781 10.59375 15.28125 10.050781 14.679688 L 9.074219 13.585938 L 8.992188 12.71875 C 8.90625 11.699219 8.875 11.582031 8.65625 11.523438 C 8.351562 11.449219 8.292969 11.582031 8.117188 12.925781 C 8.03125 13.601562 7.96875 14.207031 7.988281 14.269531 C 8 14.332031 8.09375 14.414062 8.1875 14.457031 C 8.300781 14.507812 8.792969 15.085938 9.5625 16.09375 C 10.226562 16.949219 10.820312 17.71875 10.894531 17.800781 C 11.039062 17.949219 11.195312 17.976562 11.363281 17.867188 C 11.449219 17.8125 11.6875 17.824219 12.34375 17.898438 C 12.824219 17.957031 13.226562 18.019531 13.238281 18.03125 C 13.300781 18.09375 12.730469 18.136719 8.59375 18.382812 L 4.21875 18.644531 L 3.09375 18.324219 C 2.0625 18.023438 1.960938 18.007812 1.832031 18.09375 C 1.664062 18.207031 1.644531 18.445312 1.800781 18.574219 C 1.855469 18.632812 2.59375 19.019531 3.429688 19.4375 C 5.011719 20.226562 5.21875 20.289062 5.292969 20 C 5.332031 19.851562 5.570312 19.84375 8.9375 19.945312 C 11.207031 20.007812 11.21875 20.007812 11.324219 19.875 C 11.382812 19.804688 11.4375 19.71875 11.449219 19.679688 C 11.460938 19.644531 11.988281 19.582031 12.761719 19.523438 C 13.960938 19.445312 14.09375 19.417969 14.65625 19.21875 C 15.175781 19.03125 15.257812 19.011719 15.226562 19.105469 C 15.199219 19.167969 14.882812 19.90625 14.511719 20.742188 L 13.84375 22.273438 L 12.976562 22.917969 C 11.898438 23.71875 10.664062 24.554688 9.863281 25.023438 C 9.320312 25.34375 9.25 25.398438 9.25 25.554688 C 9.25 25.960938 9.46875 25.960938 10.636719 25.539062 C 11.929688 25.070312 14.792969 23.730469 15.175781 23.425781 C 15.300781 23.320312 15.269531 23.011719 15.125 22.9375 C 15.054688 22.898438 15 22.851562 15 22.820312 C 15 22.789062 15.226562 22.386719 15.5 21.929688 C 15.78125 21.46875 16.167969 20.773438 16.363281 20.394531 C 16.554688 20.007812 16.738281 19.6875 16.757812 19.6875 C 16.773438 19.6875 16.894531 19.917969 17.011719 20.199219 L 17.230469 20.71875 L 17.082031 21.050781 C 17.007812 21.230469 16.9375 21.429688 16.9375 21.5 C 16.9375 21.5625 17.226562 22.34375 17.574219 23.230469 L 18.207031 24.835938 L 18.167969 26.875 C 18.132812 28.648438 18.136719 28.929688 18.226562 29.050781 C 18.335938 29.210938 18.570312 29.230469 18.699219 29.074219 C 18.75 29.019531 18.976562 28.085938 19.210938 26.9375 L 19.636719 24.914062 L 19.46875 24.761719 C 19.3125 24.632812 19.289062 24.542969 19.179688 23.792969 C 19.105469 23.25 19 22.800781 18.875 22.476562 C 18.769531 22.207031 18.695312 21.976562 18.699219 21.96875 C 18.710938 21.957031 19.082031 22.101562 19.523438 22.289062 L 20.332031 22.625 L 21.210938 22.53125 C 22.324219 22.414062 22.3125 22.414062 22.3125 22.167969 C 22.320312 22.054688 22.367188 21.644531 22.429688 21.238281 L 22.542969 20.511719 L 22.242188 19.710938 C 22.074219 19.269531 21.957031 18.898438 21.96875 18.882812 C 21.988281 18.867188 22.21875 18.949219 22.480469 19.0625 C 22.78125 19.1875 23.269531 19.320312 23.761719 19.40625 C 24.46875 19.53125 24.570312 19.5625 24.707031 19.71875 L 24.855469 19.898438 L 26.945312 19.542969 C 29.085938 19.175781 29.1875 19.144531 29.1875 18.875 C 29.1875 18.59375 29.082031 18.574219 26.851562 18.492188 L 24.730469 18.417969 L 23.167969 17.742188 C 22.320312 17.367188 21.574219 17.0625 21.53125 17.0625 C 21.488281 17.0625 21.292969 17.125 21.101562 17.195312 L 20.75 17.332031 L 20.21875 17.085938 C 19.925781 16.957031 19.6875 16.832031 19.6875 16.8125 C 19.6875 16.792969 20.085938 16.582031 20.582031 16.332031 C 21.070312 16.082031 21.78125 15.699219 22.15625 15.480469 L 22.84375 15.082031 L 22.988281 15.230469 C 23.304688 15.574219 23.46875 15.386719 24.363281 13.636719 C 24.960938 12.460938 25.550781 11.136719 25.867188 10.226562 C 26.050781 9.707031 26.054688 9.664062 25.96875 9.519531 C 25.824219 9.300781 25.570312 9.34375 25.40625 9.613281 C 24.738281 10.707031 23.34375 12.667969 22.398438 13.851562 C 22.3125 13.957031 19.101562 15.304688 19.074219 15.242188 C 19.0625 15.21875 19.15625 14.957031 19.273438 14.65625 C 19.480469 14.144531 19.5 14.023438 19.605469 12.804688 C 19.707031 11.523438 19.710938 11.492188 19.855469 11.460938 C 19.9375 11.4375 20.03125 11.375 20.0625 11.3125 C 20.101562 11.238281 20.105469 10.113281 20.082031 8.289062 C 20.042969 5.636719 20.050781 5.375 20.144531 5.375 C 20.273438 5.375 20.4375 5.136719 20.394531 5.007812 C 20.257812 4.605469 18.90625 1.882812 18.800781 1.792969 C 18.644531 1.664062 18.625 1.664062 18.449219 1.789062 Z M 18.449219 1.789062 "/>
</g>
</svg>
